<svg xmlns="http://www.w3.org/2000/svg" viewBox="0 -0.5 32 32" shape-rendering="crispEdges">
<metadata>Made with Pixels to Svg https://codepen.io/shshaw/pen/XbxvNj</metadata>
<path stroke="#8f563b" d="M21 3h1M15 4h1M13 5h1M12 6h1M11 8h1" />
<path stroke="#663931" d="M16 4h5M14 5h7M13 6h9M12 7h2M20 7h2M12 8h1M21 8h2M11 9h1M22 9h1M11 10h1M22 10h1M11 11h1M13 11h3M18 11h3M22 11h1M11 15h1M22 15h1M11 16h2M21 16h2M12 17h1M15 17h4M21 17h1M12 18h3M19 18h3M13 19h2M19 19h2M14 20h6M15 21h4" />
<path stroke="#eec39a" d="M14 7h5M13 8h7M12 9h9M12 10h10M12 11h1M16 11h2M21 11h1M10 12h1M12 12h1M16 12h2M21 12h1M10 13h13M10 14h7M18 14h5M12 15h4M18 15h4M13 16h8M13 17h2M19 17h2M15 18h1M15 19h1M13 20h1M13 21h1M13 22h2M13 23h3M14 24h5M15 25h5M17 26h3M17 27h2" />
<path stroke="#d9a066" d="M19 7h1M20 8h1M21 9h1M11 12h1M22 12h2M23 13h1M17 14h1M23 14h1M10 15h1M16 15h2M23 15h1M18 18h1M16 19h3M14 21h1M19 21h1M15 22h5M16 23h4M19 24h1M20 25h1M20 26h1M19 27h1" />
<path stroke="#ffffff" d="M13 12h2M18 12h2M18 28h2M18 29h3M18 30h3M19 31h2" />
<path stroke="#000000" d="M15 12h1M20 12h1M22 27h1M28 29h1M29 30h1M29 31h1" />
<path stroke="#d95763" d="M16 18h2" />
<path stroke="#45283c" d="M12 22h1M11 24h1M9 25h2M10 26h1M14 26h2M22 26h1M9 27h1M11 27h3M21 27h1M23 27h1M8 28h1M10 28h1M15 28h1M25 28h1M6 29h1M11 29h1M16 30h1M26 30h1M3 31h1M8 31h1M11 31h2M16 31h1M22 31h2M25 31h1M27 31h1" />
<path stroke="#3f3f74" d="M11 23h1M10 24h1M8 25h1M7 26h1M16 26h1M5 27h1M10 27h1M16 27h1M24 27h1M11 28h1M16 28h1M3 29h1M5 29h1M17 29h1M2 30h1M17 30h1M2 31h1M17 31h1M26 31h1" />
<path stroke="#222034" d="M12 23h1M20 23h1M12 24h2M21 24h1M11 25h4M21 25h2M8 26h2M11 26h3M23 26h2M6 27h3M14 27h2M25 27h2M4 28h3M9 28h1M12 28h3M22 28h2M26 28h1M4 29h1M7 29h4M12 29h5M21 29h1M23 29h2M26 29h2M3 30h1M6 30h6M13 30h3M21 30h1M23 30h3M27 30h1M4 31h2M7 31h1M9 31h2M14 31h1M21 31h1M28 31h1" />
<path stroke="#323c39" d="M20 24h1M21 26h1M7 28h1M21 28h1M24 28h1M27 28h1M22 29h1M25 29h1M4 30h2M12 30h1M22 30h1M28 30h1M6 31h1M13 31h1M15 31h1M24 31h1" />
<path stroke="#cbdbfc" d="M20 27h1M17 28h1M20 28h1M18 31h1" />
</svg>